<svg xmlns="http://www.w3.org/2000/svg" width="74.62" height="147.627" viewBox="0 0 74.62 147.627"><defs><style>.a{fill:#bfaa63;}</style></defs><g transform="translate(689.639 -517.52)"><path class="a" d="M-649.909,623.8h-4.437V613.115a45.532,45.532,0,0,1,.505-6.656,27.938,27.938,0,0,1,2.016-6.957,32.808,32.808,0,0,1,4.236-7.06,39.453,39.453,0,0,1,7.159-6.957l6.857-6.05q3.025-2.821,5.546-5.546a37.312,37.312,0,0,0,4.437-5.849,28.286,28.286,0,0,0,3.025-6.958,32.894,32.894,0,0,0,1.109-9.075,31.371,31.371,0,0,0-2.521-12.907,26.794,26.794,0,0,0-6.958-9.48,29.646,29.646,0,0,0-10.386-5.748,40.944,40.944,0,0,0-12.605-1.915q-13.915,0-22.587,8.168A36.381,36.381,0,0,0-685.4,551l-4.235-.807q2.821-15.73,13.109-24.2t25.008-8.47a42.659,42.659,0,0,1,14.117,2.319,35.864,35.864,0,0,1,11.7,6.655,29.964,29.964,0,0,1,7.866,10.69,35.7,35.7,0,0,1,2.823,14.621A36.952,36.952,0,0,1-616.531,563a32.926,32.926,0,0,1-4.034,8.471,43.293,43.293,0,0,1-5.748,6.856q-3.228,3.129-6.856,6.152a77.733,77.733,0,0,0-8.471,7.764,35.575,35.575,0,0,0-5.042,6.858,23.869,23.869,0,0,0-2.521,7.159,47.931,47.931,0,0,0-.706,8.672Zm-1.815,31.058a4.588,4.588,0,0,1,3.126,1.411,4.989,4.989,0,0,1,1.513,3.832,4.912,4.912,0,0,1-1.412,3.63,4.448,4.448,0,0,1-3.227,1.412,4.443,4.443,0,0,1-3.227-1.412,4.9,4.9,0,0,1-1.411-3.63,5.178,5.178,0,0,1,1.411-3.832A4.45,4.45,0,0,1-651.724,654.862Z"/></g></svg>