<svg xmlns="http://www.w3.org/2000/svg" width="16" height="21.333" viewBox="0 0 16 21.333"><defs><style>.a{fill:#3b454e;}</style></defs><path class="a" d="M15.412,4.082,11.917.588A2,2,0,0,0,10.505,0H2A2.007,2.007,0,0,0,0,2v17.33a2,2,0,0,0,2,2H14a2,2,0,0,0,2-2V5.5A2.01,2.01,0,0,0,15.412,4.082ZM10.668,1.358a.655.655,0,0,1,.308.175l3.495,3.5a.655.655,0,0,1,.175.308H10.668Zm4,17.976A.669.669,0,0,1,14,20H2a.669.669,0,0,1-.667-.667V2A.672.672,0,0,1,2,1.333H9.335V5.67a1,1,0,0,0,1,1h4.332ZM8.667,9a.333.333,0,0,0-.333-.333H7.667A.333.333,0,0,0,7.333,9v3.667H5.139a1.122,1.122,0,0,0-1.042.7,1.182,1.182,0,0,0,.227,1.284l2.838,2.991a1.148,1.148,0,0,0,1.674,0l2.838-2.99a1.185,1.185,0,0,0,.227-1.285,1.122,1.122,0,0,0-1.042-.7H8.667Zm1.785,5L8,16.584,5.548,14Z"/></svg>