<svg xmlns="http://www.w3.org/2000/svg" width="118.914" height="118.914" viewBox="0 0 118.914 118.914"><defs><style>.a{fill:none;stroke:#bfaa63;stroke-miterlimit:10;stroke-width:3px;}</style></defs><g transform="translate(-548.458 -235.59)"><g transform="translate(614.987 272.23)"><path class="a" d="M642.916,287.853l16.285-.624-.561,16.286" transform="translate(-642.916 -287.229)"/></g><line class="a" y2="16.693" transform="translate(607.915 337.116)"/><line class="a" y2="16.693" transform="translate(607.915 237.09)"/><line class="a" x1="16.693" transform="translate(549.555 295.449)"/><line class="a" x1="16.693" transform="translate(649.581 295.449)"/><g transform="translate(549.958 237.09)"><path class="a" d="M584.607,339.608l-3.569,6.709q2.191,1.159,4.49,2.132a58.168,58.168,0,1,0-18.422-12.421l.233.233,22.673-23.921-.129-17.293,19.411-.548,22.15-22.037" transform="translate(-550.13 -237.09)"/><line class="a" x1="3.919" y2="7.37" transform="translate(81.437 6.831)"/><line class="a" x1="7.37" y1="3.919" transform="translate(6.428 30.961)"/><line class="a" x1="7.37" y1="3.919" transform="translate(102.116 81.84)"/></g><g transform="translate(557.731 245.266)"><line class="a" x1="7.177" y2="4.261" transform="translate(0 75.714)"/><line class="a" x1="7.177" y2="4.261" transform="translate(93.19 20.393)"/><line class="a" x1="4.261" y1="7.177" transform="translate(20.393)"/><line class="a" x1="4.261" y1="7.177" transform="translate(75.714 93.19)"/></g></g></svg>