<svg xmlns="http://www.w3.org/2000/svg" width="275.072" height="207.239" viewBox="0 0 275.072 207.239"><defs><style>.a{fill:none;stroke:#bfaa63;stroke-miterlimit:10;stroke-width:3px;}</style></defs><g transform="translate(350.891 -461.454)"><ellipse class="a" cx="91.048" cy="37.937" rx="91.048" ry="37.937" transform="translate(-349.391 500.272)"/><path class="a" d="M-265.351,500.89c0-20.952,40.763-37.936,91.047-37.936s91.047,16.985,91.047,37.936-40.763,37.937-91.047,37.937" transform="translate(5.938 0)"/><path class="a" d="M-167.3,589.935c0,20.952-40.763,37.936-91.047,37.936s-91.048-16.985-91.048-37.936" transform="translate(0 8.972)"/><path class="a" d="M-167.3,561.589c0,20.952-40.763,37.936-91.047,37.936s-91.048-16.985-91.048-37.936" transform="translate(0 6.969)"/><path class="a" d="M-349.391,533.242V624.29c0,20.952,40.764,37.937,91.048,37.937S-167.3,645.242-167.3,624.29V533.242" transform="translate(0 4.966)"/><path class="a" d="M-89.265,555.08c0,20.952-40.763,37.936-91.047,37.936" transform="translate(11.946 6.509)"/><path class="a" d="M-89.265,526.734c0,20.952-40.763,37.936-91.047,37.936" transform="translate(11.946 4.506)"/><path class="a" d="M-180.312,627.372c50.284,0,91.047-16.985,91.047-37.937V498.387" transform="translate(11.946 2.504)"/></g></svg>