<svg xmlns="http://www.w3.org/2000/svg" width="282.954" height="174.695" viewBox="0 0 282.954 174.695"><defs><style>.a{fill:rgba(0,0,0,0);stroke:#bfaa63;stroke-miterlimit:10;stroke-width:3px;}.b{fill:#bfaa63;}</style></defs><g transform="translate(-226.011 -406.282)"><path class="a" d="M507.11,493.629s-62.51,85.847-139.621,85.847-139.622-85.847-139.622-85.847,62.51-85.847,139.622-85.847S507.11,493.629,507.11,493.629Z" transform="translate(0)"/><circle class="a" cx="68.155" cy="68.155" r="68.155" transform="translate(299.333 425.474)"/><g transform="translate(360.159 450.186)"><path class="b" d="M345.012,522.717c0-4.473,3.106-7.7,7.329-7.7,4.471,0,7.329,3.229,7.329,7.7,0,4.346-2.858,7.7-7.329,7.7C347.993,530.417,345.012,527.062,345.012,522.717Zm3.106-17.763-1.738-59.623H358.3l-1.739,59.623Z" transform="translate(-345.012 -445.331)"/></g></g></svg>