<svg xmlns="http://www.w3.org/2000/svg" width="220.024" height="26.986" viewBox="0 0 220.024 26.986"><defs><style>.a{fill:#fff;}</style></defs><g transform="translate(0 899.489)"><path class="a" d="M0-892.691v-4.592H18.988l-2.954,4.592h-3.99v21H6.85v-21Z" transform="translate(0 -1.265)"/><path class="a" d="M45.266-871.689V-892.7l2.955-4.587H61.827v4.517H50.46v5.984h9.108v4.441H50.46v6.135H61.827v4.517Z" transform="translate(-25.959 -1.265)"/><path class="a" d="M94.15-871.689v-25.594h8.769l6.173,21.077h.376v-21.077h5.194v25.594h-8.543l-6.4-21.077h-.377v21.077Z" transform="translate(-53.992 -1.265)"/><path class="a" d="M171.49-875.026q-2.39,3.181-8.224,3.181t-8.224-3.181q-2.39-3.18-2.39-9.955t2.39-10.068q2.39-3.293,8.224-3.293t8.224,3.293q2.39,3.294,2.39,10.068T171.49-875.026Zm-12.383-3.312q1.11,1.976,4.159,1.976t4.159-1.976q1.11-1.976,1.11-6.624t-1.129-6.756q-1.129-2.107-4.14-2.108t-4.14,2.108Q158-889.609,158-884.962T159.108-878.338Z" transform="translate(-87.542 -0.658)"/><path class="a" d="M218.026-880.271v8.581h-5.194v-25.594h9.936q9.033,0,9.033,8.431,0,5.006-3.764,7.377l3.651,9.786H226l-2.973-8.581Zm7.565-5.57a4.619,4.619,0,0,0,.9-2.973,4.288,4.288,0,0,0-.96-2.935,3.488,3.488,0,0,0-2.766-1.092h-4.742v8.13h4.818A3.307,3.307,0,0,0,225.591-885.841Z" transform="translate(-122.052 -1.265)"/><path class="a" d="M267.541-871.689v-25.594h5.194v25.594Z" transform="translate(-153.426 -1.265)"/><path class="a" d="M298.771-893.825q-4.1,0-4.1,2.71a2.051,2.051,0,0,0,1.016,1.844,26.332,26.332,0,0,0,4.761,1.844A13.153,13.153,0,0,1,305.7-884.7a6.433,6.433,0,0,1,1.505,4.685,7.538,7.538,0,0,1-2.446,6.1,9.568,9.568,0,0,1-6.4,2.07,35.6,35.6,0,0,1-7.189-.9l-1.355-.264.527-4.027a62.627,62.627,0,0,0,7.716.678q3.989,0,3.989-3.312a2.205,2.205,0,0,0-.922-1.882,13.068,13.068,0,0,0-3.669-1.468,14.951,14.951,0,0,1-6.154-2.955,6.279,6.279,0,0,1-1.788-4.761,6.912,6.912,0,0,1,2.334-5.721,9.918,9.918,0,0,1,6.4-1.882,42.543,42.543,0,0,1,7.076.753l1.355.264-.414,4.1Q300.954-893.825,298.771-893.825Z" transform="translate(-166.026 -0.658)"/><path class="a" d="M379.392-885.827q0,7-2.2,10.125t-8.017,3.124q-5.814,0-8.017-3.2t-2.2-10.106q0-6.906,2.221-10.256t7.979-3.35q5.759,0,8,3.331T379.392-885.827ZM362.945-877.3q1.581,2.616,6.229,2.616t6.229-2.56q1.581-2.559,1.581-8.562t-1.656-8.789q-1.657-2.784-6.173-2.785-4.667,0-6.285,3.011a10.586,10.586,0,0,0-1.185,3.538,31.82,31.82,0,0,0-.32,4.93Q361.364-879.918,362.945-877.3Z" transform="translate(-205.849)"/><path class="a" d="M419.752-872.448v-26.158h4.592L435.3-874.518h.866v-24.088h2.3v26.158h-4.517L422.913-896.5h-.828v24.05Z" transform="translate(-240.715 -0.506)"/><path class="a" d="M479.049-872.448v-26.158h15.695v2.107H481.383v9.71h11.1v2.07h-11.1v10.2h13.361v2.07Z" transform="translate(-274.72 -0.506)"/></g></svg>